# xmcd
#
# Track frame offsets: 
#        187
#        13050
#        40965
#        54982
#        71147
#        94487
#        107537
#        127110
#        142822
#        164157
#
# Disc length: 2574 seconds
#
# Revision: 3
# Processed by: cddbd v1.5.1PL2 Copyright (c) Steve Scherf et al.
# Submitted via: ExactAudioCopy v0.95b3
#
DISCID=900a0c0a
DTITLE=Old and In The Way - Old and In The Way
DYEAR=1975
DGENRE=Bluegrass
TTITLE0=Pig In A Pen
TTITLE1=Midnight Moonlight
TTITLE2=Old And In The Way
TTITLE3=Knockin' On Your Door
TTITLE4=The Hobo Song
TTITLE5=Panama Red
TTITLE6=Wild Horses
TTITLE7=Kissimmee Kid
TTITLE8=White Dove
TTITLE9=Land Of The Navajo
EXTD=YEAR: 1975
EXTT0=
EXTT1=
EXTT2=
EXTT3=
EXTT4=
EXTT5=
EXTT6=
EXTT7=
EXTT8=
EXTT9=
PLAYORDER=
